<svg xmlns="http://www.w3.org/2000/svg" viewBox="0 0 241.74 64.49"><g data-name="Layer 2"><g data-name="Layer 1"><path d="M60.28 48q.06-3.54.06-6.25t-.06-6.24q0-.93-.42-1.18a4 4 0 0 0-1.79-.25h0v-.72q2 .08 3.37.08t3.35-.08v.72a3.87 3.87 0 0 0-1.77.25q-.38.25-.41 1.18l-.06 5.55 5 0 5.06 0-.08-5.55q0-.93-.42-1.18a4 4 0 0 0-1.79-.25v-.72q2 .08 3.37.08T77 33.35v.72h0a3.89 3.89 0 0 0-1.77.25q-.38.25-.41 1.18-.06 3.54-.06 6.25T74.85 48q0 .93.42 1.18a4 4 0 0 0 1.79.25h0v.72q-2-.08-3.37-.08t-3.35.08v-.72a3.93 3.93 0 0 0 1.77-.26q.38-.25.41-1.18l.07-6q-2.82-.06-5 0l-5.06 0 .08 6q0 .93.42 1.18a4.06 4.06 0 0 0 1.79.26v.72q-2-.08-3.37-.08t-3.35.08v-.72h0a3.87 3.87 0 0 0 1.77-.25Q60.24 48.93 60.28 48zM81.34 50.4a3.35 3.35 0 0 1-2.28-.74 2.53 2.53 0 0 1-.84-2A3.54 3.54 0 0 1 79 45.24 4.38 4.38 0 0 1 81.41 44l3.86-.85a3.46 3.46 0 0 0-.76-2.32A2.7 2.7 0 0 0 82.38 40a4.47 4.47 0 0 0-1 .15 2.62 2.62 0 0 0-.85.32l-.71 1.71L79.12 42l0-1.67a12.62 12.62 0 0 1 2.22-1.25 4.81 4.81 0 0 1 1.8-.37 4.13 4.13 0 0 1 3.11 1 4.51 4.51 0 0 1 1 3.23v1.4l0 3.69a1.65 1.65 0 0 0 .3 1.18 2.29 2.29 0 0 0 1.33.25h0v.63L87.08 50l-1.89 0 0-1.89-2.67 2A4 4 0 0 1 81.34 50.4zm3.93-6v-.57l-3 .84a2.8 2.8 0 0 0-1.46.86A2.32 2.32 0 0 0 80.27 47a2 2 0 0 0 .5 1.44 1.82 1.82 0 0 0 1.38.52 3.18 3.18 0 0 0 1.77-.62 7.18 7.18 0 0 0 1.32-1.24Q85.28 45.62 85.27 44.39zM93.36 50.4a3.35 3.35 0 0 1-2.28-.74 2.53 2.53 0 0 1-.84-2A3.54 3.54 0 0 1 91 45.24 4.38 4.38 0 0 1 93.43 44l3.86-.85a3.46 3.46 0 0 0-.76-2.32A2.7 2.7 0 0 0 94.4 40a4.47 4.47 0 0 0-1 .15 2.62 2.62 0 0 0-.85.32l-.71 1.71L91.15 42l0-1.67a12.62 12.62 0 0 1 2.22-1.25 4.81 4.81 0 0 1 1.8-.37 4.13 4.13 0 0 1 3.11 1 4.51 4.51 0 0 1 1 3.23v1.4l0 3.69a1.65 1.65 0 0 0 .3 1.18 2.29 2.29 0 0 0 1.33.25h0v.63L99.11 50l-1.89 0 0-1.89-2.67 2A4 4 0 0 1 93.36 50.4zm3.93-6v-.57l-3 .84a2.8 2.8 0 0 0-1.46.86A2.32 2.32 0 0 0 92.3 47a2 2 0 0 0 .5 1.44 1.82 1.82 0 0 0 1.38.52 3.18 3.18 0 0 0 1.77-.62 7.18 7.18 0 0 0 1.32-1.24Q97.31 45.62 97.29 44.39zM103.24 41.67q0-.93-.35-1.18a3.12 3.12 0 0 0-1.57-.25h0v-.57a15.15 15.15 0 0 0 1.95-.33 15.91 15.91 0 0 0 1.89-.62l.38.19a7.43 7.43 0 0 0-.19 1.24l0 1.12a17.59 17.59 0 0 1 2.28-2 3.87 3.87 0 0 1 2.12-.58A4.54 4.54 0 0 1 113.15 40a5 5 0 0 1 1.27 3.61 6.46 6.46 0 0 1-2.19 4.55 6.44 6.44 0 0 1-4.55 2.19 4.91 4.91 0 0 1-2.22-.54l-.24-.13.07 4.85q0 .93.38 1.18a3.15 3.15 0 0 0 1.58.25v.62q-1.72-.08-3-.08t-3 .08V56h0a3 3 0 0 0 1.53-.25q.33-.25.37-1.18.07-4 .07-6.94zm5.29 7.58A3.41 3.41 0 0 0 111.34 48a5.4 5.4 0 0 0 1-3.48 4.78 4.78 0 0 0-1-3.14 3.18 3.18 0 0 0-2.58-1.19 4.11 4.11 0 0 0-3.45 2.17v5.07a4.17 4.17 0 0 0 1.43 1.34A3.56 3.56 0 0 0 108.53 49.26zM123 42.18l-.06-.68a2.43 2.43 0 0 0-.11-.53 1.47 1.47 0 0 0-.18-.4 2.57 2.57 0 0 0-.74-.64 3 3 0 0 0-1.54-.41 2.69 2.69 0 0 0-1.79.54 1.86 1.86 0 0 0-.64 1.5 1.36 1.36 0 0 0 .61 1.2 6.79 6.79 0 0 0 2.26.71 7.19 7.19 0 0 1 2.94 1.06 2.29 2.29 0 0 1 .84 1.91 3.51 3.51 0 0 1-1.36 2.86 5.37 5.37 0 0 1-3.5 1.1 11 11 0 0 1-1.69-.11 19.41 19.41 0 0 1-1.95-.44q.12-1 .17-1.65t0-1.64H117l.06 1.3a1.11 1.11 0 0 0 .17.51 1.25 1.25 0 0 0 .37.41 5.42 5.42 0 0 0 1 .53 4.13 4.13 0 0 0 1.5.26 3.15 3.15 0 0 0 2.08-.62 2.15 2.15 0 0 0 .75-1.75 1.4 1.4 0 0 0-.73-1.26 9.23 9.23 0 0 0-2.7-.81 5.28 5.28 0 0 1-2.56-1 2.57 2.57 0 0 1-.73-2 3 3 0 0 1 1.24-2.45 5.12 5.12 0 0 1 3.21-.95 7.89 7.89 0 0 1 1.77.24 5.77 5.77 0 0 1 1.51.52q-.14.78-.19 1.34a13.27 13.27 0 0 0-.06 1.36zM129.34 50.4a3.35 3.35 0 0 1-2.28-.74 2.53 2.53 0 0 1-.84-2 3.54 3.54 0 0 1 .78-2.42A4.38 4.38 0 0 1 129.41 44l3.86-.85a3.46 3.46 0 0 0-.76-2.32 2.7 2.7 0 0 0-2.13-.83 4.47 4.47 0 0 0-1 .15 2.62 2.62 0 0 0-.85.32l-.71 1.71-.65-.15 0-1.67a12.62 12.62 0 0 1 2.22-1.25 4.81 4.81 0 0 1 1.8-.37 4.13 4.13 0 0 1 3.11 1 4.51 4.51 0 0 1 1 3.23v1.4l0 3.69a1.65 1.65 0 0 0 .3 1.18 2.29 2.29 0 0 0 1.33.25h0v.63L135.08 50l-1.89 0 0-1.89-2.67 2A4 4 0 0 1 129.34 50.4zm3.93-6v-.57l-3 .84a2.8 2.8 0 0 0-1.46.86 2.32 2.32 0 0 0-.48 1.52 2 2 0 0 0 .5 1.44 1.82 1.82 0 0 0 1.38.52 3.18 3.18 0 0 0 1.77-.62 7.18 7.18 0 0 0 1.32-1.24Q133.28 45.62 133.27 44.39zM140.18 48.09q.07-3.88.07-6.84l0-5.75q0-1.1-.27-1.28a3.73 3.73 0 0 0-1.66-.14h0v-.62a18.13 18.13 0 0 0 1.95-.35 16.69 16.69 0 0 0 1.89-.65l.38.19q-.14.92-.19 1.58t-.07 2.18l0 4.87q0 3 .07 6.84 0 .93.38 1.18a3.15 3.15 0 0 0 1.58.25h0v.63q-1.72-.08-3-.08t-3 .08v-.62h0a3 3 0 0 0 1.53-.25Q140.14 49 140.18 48.09zM148.47 42.66v3.85a2.62 2.62 0 0 0 .59 1.81 2.07 2.07 0 0 0 1.63.66 3.31 3.31 0 0 0 2.18-.91 2.54 2.54 0 0 0 1-1.88V44.38l0-2.71a2.55 2.55 0 0 0-.18-1.18q-.17-.25-.78-.25H152v-.57a15 15 0 0 0 1.94-.33 15.76 15.76 0 0 0 1.88-.62l.38.19a7.28 7.28 0 0 0-.17 1.21q0 .65-.08 2.55V44.4l0 3.69q0 .93.35 1.18a3.21 3.21 0 0 0 1.6.25h0v.63L156 50l-2 0v-2a10.33 10.33 0 0 1-1.6 1.54 4.59 4.59 0 0 1-2.72.81 3.28 3.28 0 0 1-2.36-.82 3 3 0 0 1-.85-2.28l0-2.92 0-2.71a2.55 2.55 0 0 0-.18-1.18q-.17-.25-.78-.25h-.94v-.57a15.11 15.11 0 0 0 1.94-.33 15.82 15.82 0 0 0 1.88-.62l.38.19a7.68 7.68 0 0 0-.18 1.21Q148.51 40.76 148.47 42.66zM169.2 48.09q0 .93.38 1.18a3.15 3.15 0 0 0 1.58.25h0v.63q-1.72-.08-3-.08t-3 .08v-.62h0a3 3 0 0 0 1.53-.25q.33-.25.37-1.18.07-3.88.07-6.84l0-5.75q0-1.1-.29-1.28a4.43 4.43 0 0 0-1.81-.14h0v-.62a16.36 16.36 0 0 0 2-.35 17.46 17.46 0 0 0 2-.65l.38.19q-.14.93-.19 1.58t-.07 2.18l0 4.87V43.8h.09q1.56-1.3 2.63-2.29T174.51 39h2.41v.63h-.07a4.94 4.94 0 0 0-1.43.44 15.12 15.12 0 0 0-1.87 1.27l-.75.58-1.63 1.27 2.35 2.36 2.35 2.3a6.92 6.92 0 0 0 1.14 1 1.89 1.89 0 0 0 .93.21h0v.5l-1.18.42-1.18.44q-1.88-1.93-3.26-3.31L169.13 44h0zM180.05 48.75a6 6 0 0 1-1.55-4.25 5.57 5.57 0 0 1 1.66-4.17 5.87 5.87 0 0 1 4.27-1.62 5.5 5.5 0 0 1 4 1.52A5.24 5.24 0 0 1 190 44.15a6.27 6.27 0 0 1-1.66 4.5 5.64 5.64 0 0 1-4.29 1.75A5.25 5.25 0 0 1 180.05 48.75zM187 48.4a5.59 5.59 0 0 0 .88-3.35 7 7 0 0 0-1-4.07A3.29 3.29 0 0 0 184 39.52a2.92 2.92 0 0 0-2.43 1.1 4.81 4.81 0 0 0-.87 3.06 7.9 7.9 0 0 0 1 4.35 3.22 3.22 0 0 0 2.84 1.57A2.85 2.85 0 0 0 187 48.4zM192.74 48.09q.07-3.88.07-6.84l0-5.75q0-1.1-.27-1.28a3.73 3.73 0 0 0-1.66-.14h0v-.62a18.13 18.13 0 0 0 1.95-.35 16.69 16.69 0 0 0 1.89-.65l.38.19q-.14.92-.19 1.58t-.07 2.18l0 4.87q0 3 .07 6.84 0 .93.38 1.18a3.15 3.15 0 0 0 1.58.25h0v.63q-1.72-.08-3-.08t-3 .08v-.62h0a3 3 0 0 0 1.53-.25Q192.71 49 192.74 48.09zM200 48.09q.07-3.88.07-6.84l0-5.75q0-1.1-.27-1.28a3.73 3.73 0 0 0-1.66-.14h0v-.62a18.13 18.13 0 0 0 1.95-.35 16.69 16.69 0 0 0 1.89-.65l.38.19q-.14.92-.19 1.58t-.07 2.18l0 4.87q0 3 .07 6.84 0 .93.38 1.18a3.15 3.15 0 0 0 1.58.25h0v.63q-1.72-.08-3-.08t-3 .08v-.62h0a3 3 0 0 0 1.53-.25Q200 49 200 48.09zM210 50.4a4.78 4.78 0 0 1-3.75-1.64 6.17 6.17 0 0 1-1.46-4.25 5.57 5.57 0 0 1 1.67-4.14 5.78 5.78 0 0 1 4.22-1.64h0a3.94 3.94 0 0 1 3.09 1.36 4.79 4.79 0 0 1 1.16 2.83l0 1.23-2.38.33-2.71 0-2.94 0a6 6 0 0 0 1 3.3 3.51 3.51 0 0 0 3 1.44 5.63 5.63 0 0 0 1.75-.24 6.33 6.33 0 0 0 1.61-.86l.34.26-.42.86a8.86 8.86 0 0 1-2.05.92A8.29 8.29 0 0 1 210 50.4zm2.93-6.83v-.41a4.25 4.25 0 0 0-.75-2.68 2.5 2.5 0 0 0-2.09-1h0a2.79 2.79 0 0 0-2.36 1.12 4.87 4.87 0 0 0-.83 2.94l2.95 0zM221.6 50.4A4.54 4.54 0 0 1 218 48.85a5.79 5.79 0 0 1-1.38-4 5.85 5.85 0 0 1 2-4.14 5.9 5.9 0 0 1 4.15-2 5.48 5.48 0 0 1 2 .41l.73.34 0-4q0-1.1-.27-1.29a3.73 3.73 0 0 0-1.66-.14v-.62a18.13 18.13 0 0 0 1.95-.35 16.7 16.7 0 0 0 1.89-.65l.38.19q-.14.92-.19 1.58t-.07 2.18l0 4.87q0 3 .07 6.84 0 .93.38 1.18a3.16 3.16 0 0 0 1.58.25h0v.63l-2 0-2 0 0-2.1a26 26 0 0 1-2.26 1.93A2.86 2.86 0 0 1 221.6 50.4zm.61-10.66A3 3 0 0 0 219.64 41a5.54 5.54 0 0 0-.93 3.41 5 5 0 0 0 1 3.27 3.26 3.26 0 0 0 2.65 1.27 3 3 0 0 0 1.79-.58 4 4 0 0 0 1.3-1.62V41.2a5.18 5.18 0 0 0-1.55-1.07A4.19 4.19 0 0 0 222.21 39.74zM230.85 49.61q2.38-2.88 4.06-5 1.57-2 3.64-4.66a17.38 17.38 0 0 0-1.77-.07q-.81 0-1.71.06a15 15 0 0 0-1.9.18q-.25.08-.33.52l-.29 1.58h-.7q.13-.93.18-1.62T232.1 39l5.49.08 3.88-.08v.55q-2.38 2.88-4.07 5l-3.64 4.66a24.1 24.1 0 0 0 2.41.11q1.07 0 2.34-.08a11.91 11.91 0 0 0 1.89-.17q.24-.09.34-.61l.29-1.82h.7q-.13 1-.18 1.77t-.06 1.77l-6.78-.08-3.88.08v-.54zm5.33-11.71q-.84-1.19-1.46-2t-1.53-2H234l2.83 2.56 2.83-2.56h.77l-3 4h-1.2z"/><path d="M0,50.42v2.87h.9A43,43,0,0,1,16.15,56V32.89c0-4.31,1.63-6.65,3.94-8.21,2.23,1.59,4,4,4,8.21L24,60.06a33.85,33.85,0,0,1,5.31,4.43l0-31.72c0-7.24-3.84-11.25-8.06-13.73a10,10,0,0,0-1.2-.6,10.61,10.61,0,0,0-1.2.6,15.09,15.09,0,0,0-8.06,13.73V50.42H5.33l0-17.29C5.31,18.82,11.59,11.26,20,6.49c7.87,4.77,14.68,12.34,14.68,26.65l0,17.29H40l0-17.61c0-17-8.85-26.3-19-32.31A8.81,8.81,0,0,0,20,0a8.56,8.56,0,0,0-1,.51C9.25,6.05,0,15.82,0,32.82Z" fill="#b20e10"/><path d="M61.65 18.72q-.06.78-.06 1.64v3a9.52 9.52 0 0 0 .08 1.82c.06.11.25.17.59.17h.39v.32q-.92 0-1.56 0t-1.55 0v-.32H60a.74.74 0 0 0 .45-.09.54.54 0 0 0 .13-.35c0-.4.05-.93.05-1.57v-3c0-.59 0-1.12 0-1.61H60a8.14 8.14 0 0 0-1.41.06c-.09 0-.14.19-.17.46l-.07.69h-.32v-.61c0-.25 0-.61-.07-1.07l3.31 0 2.88 0q-.1.88-.11 1.69h-.32l-.05-.68a1 1 0 0 0-.09-.41.39.39 0 0 0-.26-.08q-.57 0-1.3 0zM69.14 23.13h-3l-.36.85a4.27 4.27 0 0 0-.35 1 .21.21 0 0 0 .06.17.81.81 0 0 0 .33.08l.5.06v.32c-.33 0-.71 0-1.12 0s-.93 0-1.31 0v-.32H64a1.13 1.13 0 0 0 .47-.07.78.78 0 0 0 .23-.32q.37-.75.75-1.62l1.42-3.23q.57-1.29.78-1.87h.36l2.62 6.11a5.88 5.88 0 0 0 .35.75.52.52 0 0 0 .2.19 1.79 1.79 0 0 0 .51.07v.32c-.44 0-.86 0-1.27 0s-.88 0-1.51 0v-.32l.51 0a1 1 0 0 0 .33-.06.18.18 0 0 0 .08-.15 2.09 2.09 0 0 0-.15-.49zm-2.81-.42H69l-1.31-3.14zM74.41 25.11l1 0c.65 0 1.16 0 1.53-.05a5.43 5.43 0 0 0 .8-.15L78 23.72h.32c-.09.66-.16 1.27-.21 1.84a8.09 8.09 0 0 1-1.28.08l-2.47 0-1.55 0v-.26c.28-.12.44-.25.49-.39a8.78 8.78 0 0 0 .08-1.64V20.48a9.49 9.49 0 0 0-.07-1.73c0-.12-.19-.18-.42-.18h-.56v-.32l1.64 0c.36 0 .85 0 1.47 0v.32h-.64c-.18 0-.3.05-.35.16A5.93 5.93 0 0 0 74.41 20v3.3l0 1.46zM81 25.11l1 0c.65 0 1.16 0 1.53-.05a5.41 5.41 0 0 0 .79-.15l.31-1.22H85c-.09.66-.16 1.27-.21 1.84a8.09 8.09 0 0 1-1.28.08l-2.47 0-1.55 0v-.26c.28-.12.44-.25.49-.39A8.78 8.78 0 0 0 80 23.33V20.48a9.28 9.28 0 0 0-.08-1.73c0-.12-.19-.18-.42-.18H79v-.32l1.65 0c.36 0 .85 0 1.47 0v.32h-.65c-.18 0-.3.05-.35.16A5.71 5.71 0 0 0 81 20v3.3l0 1.46zM85.7 25.31H86q.48 0 .58-.23a12.32 12.32 0 0 0 .1-2.24V21.08a14.44 14.44 0 0 0-.08-2.29c-.05-.14-.22-.21-.5-.21H85.7v-.32q.87 0 1.72 0c.47 0 .9 0 1.28 0v.32h-.4a.77.77 0 0 0-.47.09.72.72 0 0 0-.11.45q0 .56 0 2v1.79a12.88 12.88 0 0 0 .09 2.22c.06.14.25.21.57.21h.35v.32c-.43 0-.9 0-1.4 0s-1.12 0-1.59 0zM91.53 19.41V23c0 .82 0 1.39 0 1.71a.82.82 0 0 0 .12.45 1 1 0 0 0 .5.12l.34 0v.32q-.57 0-1 0l-1.46 0v-.32h.38a.71.71 0 0 0 .44-.09.58.58 0 0 0 .13-.37q.06-.57.06-1.55V20.71q0-.73 0-1.44a.87.87 0 0 0-.08-.41.68.68 0 0 0-.2-.2.69.69 0 0 0-.38-.09h-.32v-.32l1 0c.25 0 .52 0 .82 0q.51.63 1 1.22t.94 1.2l1.77 2.18q1 1.17 1.38 1.63V21.14a16 16 0 0 0-.07-2.29c-.05-.13-.25-.21-.6-.24l-.39 0v-.32l1.3 0q.48 0 1.25 0v.32H98c-.32 0-.51.11-.56.32s0 .9 0 2.27v2.34q0 .95.08 2.26a5.4 5.4 0 0 1-.82-.16.61.61 0 0 1-.22-.16q-.58-.64-1.21-1.42zM100.69 19.41V23c0 .82 0 1.39 0 1.71a.82.82 0 0 0 .12.45 1 1 0 0 0 .5.12l.33 0v.32q-.57 0-1 0l-1.46 0v-.32h.37a.71.71 0 0 0 .44-.09.58.58 0 0 0 .13-.37q.06-.57.06-1.55V20.71c0-.49 0-1 0-1.44a.92.92 0 0 0-.08-.41.7.7 0 0 0-.21-.2.69.69 0 0 0-.38-.09h-.32v-.32l1 0q.37 0 .82 0 .51.63 1 1.22t.94 1.2l1.77 2.18q1 1.17 1.38 1.63V21.14a15.74 15.74 0 0 0-.07-2.29c-.05-.13-.25-.21-.6-.24l-.39 0v-.32l1.3 0c.32 0 .74 0 1.25 0v.32h-.4c-.32 0-.51.11-.56.32s0 .9 0 2.27v2.34q0 .95.08 2.26a5.56 5.56 0 0 1-.82-.16.65.65 0 0 1-.22-.16Q105 24.8 104.41 24zM113 23.13h-3l-.36.85a4.27 4.27 0 0 0-.35 1 .21.21 0 0 0 .07.17.8.8 0 0 0 .33.08l.5.06v.32c-.33 0-.71 0-1.12 0s-.93 0-1.31 0v-.32h.15a1.13 1.13 0 0 0 .47-.07.78.78 0 0 0 .23-.32q.37-.75.75-1.62l1.42-3.23q.57-1.29.78-1.87h.36l2.62 6.11a5.88 5.88 0 0 0 .35.75.51.51 0 0 0 .2.19 1.78 1.78 0 0 0 .51.07v.32c-.44 0-.86 0-1.27 0s-.88 0-1.51 0v-.32l.51 0a1 1 0 0 0 .33-.06.18.18 0 0 0 .08-.15 2.12 2.12 0 0 0-.15-.49zm-2.81-.42h2.63l-1.31-3.14zM120.41 18.57v-.32l1.55 0 1.5 0v.32h-.38c-.32 0-.52.06-.58.19a6.93 6.93 0 0 0-.1 1.69v2a6.63 6.63 0 0 0 .12 1.55 1.27 1.27 0 0 0 .63.74 2.68 2.68 0 0 0 1.36.3 3.12 3.12 0 0 0 1.48-.32 1.32 1.32 0 0 0 .61-.69 5.46 5.46 0 0 0 .19-1.78v-2a4.92 4.92 0 0 0-.12-1.55c-.08-.13-.3-.2-.67-.2h-.27v-.32l1.37 0q.47 0 1.17 0v.32h-.36c-.28 0-.45.07-.53.22a5.28 5.28 0 0 0-.12 1.55v1.94a7.77 7.77 0 0 1-.13 1.8 2 2 0 0 1-.48.84 2.43 2.43 0 0 1-.94.59 3.92 3.92 0 0 1-1.38.22 4.8 4.8 0 0 1-1.43-.19 2.47 2.47 0 0 1-.92-.48 1.65 1.65 0 0 1-.45-.7 5 5 0 0 1-.14-1.4V20.39a7.53 7.53 0 0 0-.09-1.64c-.06-.12-.24-.18-.55-.18zm3-2a.57.57 0 1 1-.57.57.54.54 0 0 1 .17-.4.55.55 0 0 1 .4-.16m2.24 0a.57.57 0 0 1 .57.57.55.55 0 0 1-.17.41.54.54 0 0 1-.4.17.56.56 0 0 1-.4-.17.57.57 0 0 1 0-.81.55.55 0 0 1 .41-.16M131.39 25.11l1 0c.65 0 1.16 0 1.53-.05a5.43 5.43 0 0 0 .8-.15l.31-1.22h.32c-.09.66-.16 1.27-.21 1.84a8.1 8.1 0 0 1-1.28.08l-2.47 0-1.55 0v-.26a.86.86 0 0 0 .49-.39 9 9 0 0 0 .08-1.64V20.48a9.56 9.56 0 0 0-.08-1.73c-.05-.12-.19-.18-.42-.18h-.56v-.32l1.64 0c.36 0 .85 0 1.47 0v.32h-.64c-.18 0-.3.05-.35.16a5.84 5.84 0 0 0-.07 1.31v3.3l0 1.46zM136 25.31h.33c.32 0 .52-.08.58-.23a12.39 12.39 0 0 0 .1-2.24V21.08a14.44 14.44 0 0 0-.08-2.29c-.06-.14-.22-.21-.5-.21H136v-.32c.58 0 1.15 0 1.72 0s.9 0 1.28 0v.32h-.4a.76.76 0 0 0-.47.09.7.7 0 0 0-.11.45q0 .56 0 2v1.79a12.64 12.64 0 0 0 .09 2.22c.06.14.25.21.57.21H139v.32q-.64 0-1.4 0t-1.6 0zM143.39 21.53l3.52 3.32.32.31a.48.48 0 0 0 .2.13 1.3 1.3 0 0 0 .33 0v.32c-.28 0-.54 0-.75 0s-.47 0-.74 0l-3.57-3.4c-.12-.11-.19-.17-.22-.17s-.11.07-.11.2v1.58a7.82 7.82 0 0 0 0 1.27c.05.12.24.19.57.19h.39v.32c-.57 0-1.07 0-1.51 0s-1 0-1.49 0v-.32h.42c.28 0 .44-.05.5-.15a5.19 5.19 0 0 0 .08-1.32V20.36a7.56 7.56 0 0 0-.08-1.61c-.06-.12-.22-.18-.5-.18h-.42v-.32l1.39 0 1.61 0v.32H143a.86.86 0 0 0-.45.1.48.48 0 0 0-.12.32q0 .24 0 1.38v1.4h.07c.28-.23.53-.44.73-.64s.54-.53 1-1l1.47-1.53v-.36c.38 0 .7 0 .94 0s.55 0 .86 0v.32h-.28a1.29 1.29 0 0 0-.63.14 9.71 9.71 0 0 0-1.2 1zM148 21.94a3.61 3.61 0 0 1 1.1-2.74 4.09 4.09 0 0 1 2.93-1 3.93 3.93 0 0 1 2.81 1 3.37 3.37 0 0 1 1 2.57 3.87 3.87 0 0 1-1.18 2.88 4.09 4.09 0 0 1-3 1.16 3.93 3.93 0 0 1-1.94-.45 3.25 3.25 0 0 1-1.29-1.33 4.15 4.15 0 0 1-.47-2m1.06-.42a4.79 4.79 0 0 0 .4 2 3 3 0 0 0 1.07 1.3 2.79 2.79 0 0 0 1.53.43 2.62 2.62 0 0 0 1.4-.37 2.48 2.48 0 0 0 .94-1.09 4.14 4.14 0 0 0 .34-1.77 4.2 4.2 0 0 0-.38-1.87 2.68 2.68 0 0 0-1-1.17 3 3 0 0 0-1.56-.39 2.8 2.8 0 0 0-1.43.35 2.39 2.39 0 0 0-.94 1 3.33 3.33 0 0 0-.34 1.54M156.69 21.94a3.61 3.61 0 0 1 1.1-2.74 4.09 4.09 0 0 1 2.93-1 3.93 3.93 0 0 1 2.81 1 3.37 3.37 0 0 1 1 2.57 3.87 3.87 0 0 1-1.18 2.88 4.09 4.09 0 0 1-3 1.16 3.94 3.94 0 0 1-1.94-.45 3.26 3.26 0 0 1-1.28-1.33 4.17 4.17 0 0 1-.47-2m1.06-.42a4.81 4.81 0 0 0 .4 2 3 3 0 0 0 1.07 1.3 2.79 2.79 0 0 0 1.53.43 2.62 2.62 0 0 0 1.4-.37 2.47 2.47 0 0 0 .94-1.09 4.12 4.12 0 0 0 .34-1.77 4.2 4.2 0 0 0-.38-1.87A2.68 2.68 0 0 0 162 19a3 3 0 0 0-1.57-.39A2.81 2.81 0 0 0 159 19a2.38 2.38 0 0 0-.94 1 3.33 3.33 0 0 0-.34 1.54M167.38 25.11l1 0c.65 0 1.16 0 1.53-.05a5.39 5.39 0 0 0 .79-.15l.31-1.22h.32c-.09.66-.16 1.27-.21 1.84a8.1 8.1 0 0 1-1.28.08l-2.47 0-1.55 0v-.26c.28-.12.44-.25.49-.39a8.59 8.59 0 0 0 .08-1.64V20.48a9.28 9.28 0 0 0-.08-1.73c-.05-.12-.19-.18-.42-.18h-.57v-.32l1.65 0c.36 0 .85 0 1.47 0v.32h-.64c-.18 0-.3.05-.35.16a5.84 5.84 0 0 0-.07 1.31v3.3l0 1.46z"/></g></g></svg>